<svg width="47" height="43" viewBox="0 0 47 43" fill="none" xmlns="http://www.w3.org/2000/svg">
<g clip-path="url(#clip0_16_460)">
<path d="M46.0466 11.4831V18.0744C44.6829 18.0311 43.3179 18.0874 41.9624 18.2428C39.8751 18.4777 37.8211 18.9489 35.8401 19.6474C32.314 20.8992 29.0696 22.8344 26.2926 25.342C23.4607 27.9018 21.161 30.9944 19.5248 34.4433C18.4057 36.8142 17.6084 39.324 17.1539 41.906C16.3668 41.7468 15.5895 41.5424 14.8258 41.2939C15.072 38.5425 15.6721 35.8343 16.6113 33.2365C18.0808 29.1874 20.3338 25.4676 23.2414 22.2896C27.757 17.3622 33.6465 13.9023 40.1489 12.3571C42.0857 11.8951 44.059 11.6027 46.0466 11.4831ZM33.5521 3.52852C33.2848 3.65013 33.0175 3.77709 32.7503 3.90405C27.9546 6.20563 23.6304 9.38144 19.9992 13.2686C16.2202 17.3193 13.2757 22.0743 11.3337 27.2625C10.0168 30.791 9.1864 34.4823 8.86523 38.2348C9.56032 38.747 10.2865 39.2157 11.0396 39.638C11.5427 35.7754 12.624 32.0103 14.2471 28.4693C16.3553 23.8807 19.3466 19.7522 23.0503 16.3197C26.7002 12.9416 30.9793 10.315 35.6437 8.58965C36.2068 8.38206 36.7739 8.18872 37.345 8.00964C40.1694 7.125 43.0892 6.57989 46.0426 6.38585V0.00162506C41.7252 0.541055 37.5141 1.73012 33.5521 3.52852Z" fill="url(#paint0_linear_16_460)"/>
<path d="M42.1342 19.8793C42.3684 23.0355 41.8825 26.2036 40.7132 29.1444C39.5438 32.0853 37.7217 34.7221 35.3843 36.8558C33.0469 38.9894 30.2553 40.5642 27.2203 41.4612C24.1852 42.3582 20.9861 42.5539 17.8643 42.0337C19.0015 35.8189 22.1596 30.1539 26.8479 25.9188C29.595 23.4445 32.8006 21.5329 36.2833 20.2923C38.1507 19.6351 40.0838 19.1816 42.0487 18.9398C43.1532 18.8479 44.2621 18.8202 45.3698 18.857L42.1382 19.878L42.1342 19.8793ZM38.3615 9.33476L41.168 7.89941C40.0431 8.06121 38.932 8.30782 37.8442 8.63714L37.7814 8.65585C37.2108 8.83627 36.6427 9.03005 36.0961 9.23185C31.4746 10.9463 27.2335 13.5493 23.6124 16.8937C17.0677 22.9643 12.8555 31.1351 11.7073 39.9876C12.7098 40.5065 13.7531 40.9427 14.8266 41.2919C15.0728 38.5405 15.6729 35.8324 16.612 33.2345C18.0815 29.1854 20.3345 25.4656 23.2422 22.2876C27.7577 17.3603 33.6472 13.9004 40.1496 12.3551C39.6384 11.2987 39.0379 10.2878 38.3548 9.33342L38.3615 9.33476Z" fill="url(#paint1_linear_16_460)"/>
<path d="M31.047 2.89674C26.3804 0.438421 20.9575 -0.166383 15.8639 1.20346C10.7704 2.5733 6.38238 5.81666 3.5784 10.2841C0.774422 14.7515 -0.238479 20.1133 0.742491 25.2958C1.72346 30.4782 4.62589 35.0989 8.86863 38.2325C9.1898 34.48 10.0202 30.7887 11.3371 27.2602C13.2791 22.072 16.2236 17.317 20.0026 13.2662C23.4987 9.5254 27.6378 6.44235 32.2231 4.16369C32.3995 4.07549 32.5759 3.98728 32.7577 3.8964C33.025 3.76944 33.2923 3.64247 33.5595 3.52085C35.1193 2.81194 36.7207 2.19827 38.3547 1.68324L38.3908 1.6672L31.047 2.89674Z" fill="url(#paint2_linear_16_460)"/>
<g style="mix-blend-mode:screen">
<path d="M2.4458 12.3204C6.5822 12.8377 10.7728 11.9558 14.3498 9.81527C17.9269 7.6747 20.6847 4.39859 22.1838 0.508867C18.0993 0.33185 14.0524 1.35643 10.5442 3.45581C7.03598 5.55519 4.22035 8.6372 2.4458 12.3204Z" fill="#231F20"/>
</g>
<g style="mix-blend-mode:screen">
<path d="M1.18658 27.1859C4.88967 24.8988 7.67908 21.3917 9.07424 17.2689C10.4694 13.1461 10.3829 8.66581 8.82973 4.59993C8.0049 5.21088 7.2255 5.88086 6.49763 6.6046C3.85306 9.24695 1.96541 12.5501 1.03131 16.1699C0.0971999 19.7898 0.150812 23.5939 1.18658 27.1859Z" fill="#231F20"/>
</g>
<g style="mix-blend-mode:screen">
<path d="M16.612 33.2358C16.995 32.1783 17.433 31.1416 17.9244 30.1299C16.5983 30.2464 15.2913 30.5247 14.0327 30.9585C12.8959 33.8637 12.1151 36.8959 11.7073 39.9889C12.7098 40.5078 13.7531 40.944 14.8266 41.2933C15.0728 38.5418 15.6729 35.8337 16.612 33.2358Z" fill="#231F20"/>
</g>
<g style="mix-blend-mode:screen">
<path d="M8.86823 38.2346C9.01292 36.5772 9.25658 34.93 9.59792 33.3018C8.46209 34.1499 7.4406 35.1413 6.55884 36.2513C7.27935 36.9677 8.0512 37.6306 8.86823 38.2346Z" fill="#231F20"/>
</g>
<g style="mix-blend-mode:screen">
<path d="M33.5925 38.3066C32.4505 36.3108 30.9017 34.5775 29.0464 33.219C27.1911 31.8606 25.0709 30.9075 22.8234 30.4215C21.7978 31.8335 20.9032 33.3361 20.1505 34.9107C19.0821 37.1739 18.3113 39.566 17.8572 42.0273C20.5957 42.483 23.3975 42.3887 26.0991 41.7499C28.8008 41.1111 31.3481 39.9405 33.5925 38.3066Z" fill="#231F20"/>
</g>
<g style="mix-blend-mode:screen">
<path d="M41.777 25.5425C37.5677 25.7019 33.5817 27.477 30.6473 30.499C27.7129 33.521 26.0557 37.5575 26.0203 41.7697C29.9296 40.8677 33.4956 38.8569 36.2905 35.9786C39.0854 33.1003 40.9904 29.4766 41.777 25.5425Z" fill="#231F20"/>
</g>
<g style="mix-blend-mode:color">
<rect x="-0.833008" y="-0.831253" width="49.1301" height="45.7993" fill="#D9D9D9"/>
</g>
</g>
<defs>
<linearGradient id="paint0_linear_16_460" x1="20.777" y1="16.0404" x2="33.0617" y2="22.017" gradientUnits="userSpaceOnUse">
<stop stop-color="white"/>
<stop offset="1" stop-color="#D1D3D4"/>
</linearGradient>
<linearGradient id="paint1_linear_16_460" x1="36.6147" y1="36.0491" x2="24.3301" y2="21.4403" gradientUnits="userSpaceOnUse">
<stop stop-color="#22BEE7"/>
<stop offset="1" stop-color="#1B6DB5"/>
</linearGradient>
<linearGradient id="paint2_linear_16_460" x1="8.95151" y1="7.52085" x2="19.2448" y2="16.2639" gradientUnits="userSpaceOnUse">
<stop stop-color="#FBAE17"/>
<stop offset="1" stop-color="#F16322"/>
</linearGradient>
<clipPath id="clip0_16_460">
<rect width="46.0475" height="42.6505" fill="white"/>
</clipPath>
</defs>
</svg>
