<svg width="148" height="24" viewBox="0 0 148 24" fill="none" xmlns="http://www.w3.org/2000/svg">
<path d="M141.436 22.4248C140.256 22.4248 139.224 22.1125 138.337 21.488C137.451 20.8635 136.759 19.9923 136.26 18.8744C135.767 17.7566 135.52 16.4545 135.52 14.9681C135.52 13.488 135.767 12.1922 136.26 11.0806C136.759 9.96268 137.455 9.09461 138.347 8.47635C139.239 7.85184 140.278 7.53958 141.464 7.53958C142.337 7.53958 143.064 7.69571 143.644 8.00796C144.225 8.31397 144.69 8.69493 145.039 9.15082C145.389 9.60671 145.66 10.0501 145.853 10.481H146.003V2.94006H147.679V22.125H146.05V19.4552H145.853C145.66 19.8924 145.385 20.342 145.03 20.8042C144.674 21.2601 144.203 21.6441 143.616 21.9564C143.036 22.2687 142.309 22.4248 141.436 22.4248ZM141.632 20.8979C142.562 20.8979 143.354 20.6449 144.009 20.1391C144.665 19.627 145.164 18.9244 145.507 18.0314C145.856 17.1321 146.031 16.1016 146.031 14.94C146.031 13.7909 145.86 12.7761 145.516 11.8955C145.173 11.0087 144.674 10.3155 144.019 9.81592C143.364 9.31007 142.568 9.05714 141.632 9.05714C140.671 9.05714 139.86 9.31944 139.199 9.84403C138.543 10.3624 138.044 11.0649 137.701 11.9517C137.364 12.8386 137.196 13.8346 137.196 14.94C137.196 16.0579 137.367 17.0665 137.71 17.9658C138.054 18.8651 138.553 19.5801 139.208 20.111C139.869 20.6356 140.677 20.8979 141.632 20.8979Z" fill="black"/>
<path d="M123.98 13.1321V22.125H122.314V7.7363H123.933V9.99391H124.083C124.42 9.25699 124.944 8.66682 125.656 8.22342C126.373 7.77377 127.259 7.54895 128.314 7.54895C129.281 7.54895 130.129 7.75192 130.86 8.15785C131.596 8.55753 132.167 9.1477 132.572 9.92833C132.984 10.709 133.19 11.6676 133.19 12.8042V22.125H131.524V12.9072C131.524 11.7269 131.193 10.7933 130.532 10.1063C129.877 9.41936 128.997 9.07588 127.893 9.07588C127.137 9.07588 126.467 9.23825 125.88 9.563C125.294 9.88774 124.829 10.3561 124.486 10.9681C124.149 11.5739 123.98 12.2952 123.98 13.1321Z" fill="black"/>
<path d="M117.55 22.125V7.73629H119.226V22.125H117.55ZM118.402 5.26323C118.059 5.26323 117.766 5.1477 117.522 4.91663C117.279 4.67932 117.157 4.39516 117.157 4.06417C117.157 3.73318 117.279 3.45215 117.522 3.22109C117.766 2.98377 118.059 2.86511 118.402 2.86511C118.745 2.86511 119.039 2.98377 119.282 3.22109C119.525 3.45215 119.647 3.73318 119.647 4.06417C119.647 4.39516 119.525 4.67932 119.282 4.91663C119.039 5.1477 118.745 5.26323 118.402 5.26323Z" fill="black"/>
<path d="M98.0241 22.125L92.7733 2.94006H94.5517L98.8946 19.4365H99.0443L103.387 2.94006H105.409L109.752 19.4365H109.902L114.245 2.94006H116.032L110.781 22.125H108.91L104.464 5.8534H104.342L99.8961 22.125H98.0241Z" fill="black"/>
<path d="M82.2886 13.5817V22.125H79.49V2.94006H82.2511V10.0782H82.429C82.7659 9.30382 83.2807 8.68868 83.9733 8.23279C84.6659 7.7769 85.5707 7.54895 86.6876 7.54895C87.6735 7.54895 88.5346 7.75192 89.2709 8.15785C90.0135 8.56378 90.5875 9.16955 90.9931 9.97517C91.405 10.7745 91.6109 11.7738 91.6109 12.9728V22.125H88.8123V13.3101C88.8123 12.2546 88.5409 11.4365 87.998 10.8557C87.4551 10.2687 86.7001 9.97517 85.7329 9.97517C85.0715 9.97517 84.4787 10.1157 83.9546 10.3967C83.4367 10.6777 83.028 11.0899 82.7285 11.6332C82.4352 12.1703 82.2886 12.8198 82.2886 13.5817Z" fill="black"/>
<path d="M77.4032 7.73624V9.98447H69.5504V7.73624H77.4032ZM71.6563 4.28894H74.4549V17.9001C74.4549 18.4435 74.536 18.8525 74.6982 19.1273C74.8605 19.3958 75.0695 19.5801 75.3253 19.68C75.5874 19.7737 75.8713 19.8205 76.1771 19.8205C76.4017 19.8205 76.5982 19.8049 76.7667 19.7737C76.9352 19.7424 77.0662 19.7175 77.1598 19.6987L77.6653 22.0125C77.503 22.075 77.2721 22.1374 76.9726 22.1999C76.6731 22.2686 76.2987 22.3061 75.8495 22.3123C75.1132 22.3248 74.4268 22.1936 73.7903 21.9189C73.1539 21.6441 72.6391 21.2194 72.246 20.6449C71.8529 20.0703 71.6563 19.349 71.6563 18.4809V4.28894Z" fill="black"/>
<path d="M61.0452 22.125V7.73633H63.7501V10.022H63.8999C64.162 9.24764 64.6237 8.63875 65.2851 8.19535C65.9528 7.7457 66.7078 7.52087 67.5502 7.52087C67.7249 7.52087 67.9308 7.52712 68.1679 7.53961C68.4113 7.5521 68.6016 7.56771 68.7389 7.58645V10.2656C68.6266 10.2344 68.4269 10.2 68.1399 10.1626C67.8528 10.1188 67.5658 10.097 67.2788 10.097C66.6173 10.097 66.0277 10.2375 65.5098 10.5185C64.9981 10.7933 64.5925 11.1774 64.293 11.6707C63.9935 12.1579 63.8437 12.7137 63.8437 13.3382V22.125H61.0452Z" fill="black"/>
<path d="M52.5376 22.4154C51.1898 22.4154 50.0136 22.1063 49.009 21.488C48.0044 20.8698 47.2244 20.0048 46.6691 18.8932C46.1137 17.7816 45.8361 16.4826 45.8361 14.9962C45.8361 13.5037 46.1137 12.1984 46.6691 11.0806C47.2244 9.96268 48.0044 9.09461 49.009 8.47635C50.0136 7.85808 51.1898 7.54895 52.5376 7.54895C53.8854 7.54895 55.0617 7.85808 56.0663 8.47635C57.0709 9.09461 57.8509 9.96268 58.4062 11.0806C58.9615 12.1984 59.2392 13.5037 59.2392 14.9962C59.2392 16.4826 58.9615 17.7816 58.4062 18.8932C57.8509 20.0048 57.0709 20.8698 56.0663 21.488C55.0617 22.1063 53.8854 22.4154 52.5376 22.4154ZM52.547 20.0641C53.4206 20.0641 54.1444 19.8331 54.7185 19.3709C55.2925 18.9088 55.7168 18.2936 55.9914 17.5255C56.2722 16.7574 56.4126 15.9111 56.4126 14.9869C56.4126 14.0688 56.2722 13.2257 55.9914 12.4576C55.7168 11.6832 55.2925 11.0618 54.7185 10.5934C54.1444 10.1251 53.4206 9.89086 52.547 9.89086C51.6672 9.89086 50.9371 10.1251 50.3568 10.5934C49.7828 11.0618 49.3553 11.6832 49.0745 12.4576C48.8 13.2257 48.6627 14.0688 48.6627 14.9869C48.6627 15.9111 48.8 16.7574 49.0745 17.5255C49.3553 18.2936 49.7828 18.9088 50.3568 19.3709C50.9371 19.8331 51.6672 20.0641 52.547 20.0641Z" fill="black"/>
<path d="M43.8055 2.94006V22.125H41.1473L31.4038 8.0548H31.226V22.125H28.3338V2.94006H31.0107L40.7635 17.029H40.9414V2.94006H43.8055Z" fill="black"/>
<rect width="23.9797" height="24" fill="#1665D8"/>
<path d="M20.3306 6.08777C20.0339 6.36466 19.7394 6.63203 19.4473 6.88977C16.7659 9.22705 13.7479 11.2487 10.1929 12.2819C6.85904 13.3641 1.90547 12.8632 0.350168 9.23169C0.185968 8.8605 0.0675179 8.47516 0 8.08691C0.167011 8.44378 0.372276 8.77589 0.606299 9.08081C2.82667 11.9264 6.62427 11.6829 9.76812 10.7756C13.0298 9.83168 16.1347 8.27813 19.279 6.64441C19.6226 6.46523 19.9732 6.27983 20.3306 6.08777Z" fill="white"/>
<path d="M0 5.73914C0.147882 6.03573 0.315548 6.31919 0.502017 6.58252C2.23057 9.07302 5.27044 9.08784 7.99386 8.64648C10.7673 8.18277 13.5495 7.28587 16.3825 6.39282C16.6926 6.29477 17.0094 6.19304 17.3331 6.08777C17.0564 6.28618 16.7825 6.47717 16.5117 6.66052C14.0324 8.31826 11.29 9.67831 8.2434 10.1915C5.34958 10.7824 1.21438 9.90526 0.237104 6.71729C0.126351 6.39574 0.0484414 6.06703 0 5.73914Z" fill="white"/>
</svg>
