<svg width="162" height="43" viewBox="0 0 162 43" fill="none" xmlns="http://www.w3.org/2000/svg">
<g clip-path="url(#clip0_16_15)">
<path d="M46.0466 11.4831V18.0744C44.6829 18.0311 43.3179 18.0874 41.9624 18.2428C39.8751 18.4777 37.8211 18.9489 35.8401 19.6474C32.314 20.8992 29.0696 22.8344 26.2926 25.342C23.4607 27.9018 21.161 30.9944 19.5248 34.4432C18.4057 36.8142 17.6084 39.3239 17.1539 41.906C16.3668 41.7468 15.5895 41.5424 14.8258 41.2939C15.072 38.5425 15.6721 35.8343 16.6113 33.2364C18.0808 29.1874 20.3338 25.4676 23.2414 22.2896C27.757 17.3622 33.6465 13.9023 40.1489 12.3571C42.0857 11.8951 44.059 11.6027 46.0466 11.4831ZM33.5521 3.52851C33.2848 3.65013 33.0175 3.77708 32.7503 3.90404C27.9546 6.20562 23.6304 9.38143 19.9992 13.2686C16.2202 17.3193 13.2757 22.0743 11.3337 27.2625C10.0168 30.791 9.1864 34.4823 8.86523 38.2348C9.56032 38.747 10.2865 39.2157 11.0396 39.638C11.5427 35.7754 12.624 32.0103 14.2471 28.4693C16.3553 23.8807 19.3466 19.7522 23.0503 16.3197C26.7002 12.9416 30.9793 10.315 35.6437 8.58964C36.2068 8.38205 36.7739 8.18871 37.345 8.00963C40.1694 7.12499 43.0892 6.57988 46.0426 6.38584V0.00161743C41.7252 0.541048 37.5141 1.73012 33.5521 3.52851Z" fill="url(#paint0_linear_16_15)"/>
<path d="M42.1341 19.8793C42.3683 23.0355 41.8823 26.2036 40.713 29.1444C39.5437 32.0853 37.7216 34.7221 35.3842 36.8558C33.0468 38.9894 30.2552 40.5642 27.2201 41.4612C24.1851 42.3582 20.9859 42.5539 17.8642 42.0337C19.0014 35.8189 22.1595 30.1539 26.8478 25.9188C29.5948 23.4445 32.8005 21.5329 36.2831 20.2923C38.1506 19.6351 40.0836 19.1816 42.0486 18.9398C43.1531 18.8479 44.262 18.8202 45.3697 18.857L42.1381 19.878L42.1341 19.8793ZM38.3613 9.33476L41.1679 7.89941C40.0429 8.06121 38.9318 8.30782 37.8441 8.63714L37.7813 8.65585C37.2106 8.83627 36.6426 9.03005 36.096 9.23185C31.4745 10.9463 27.2334 13.5493 23.6123 16.8937C17.0676 22.9643 12.8554 31.1351 11.7072 39.9876C12.7097 40.5065 13.7529 40.9427 14.8264 41.2919C15.0727 38.5405 15.6728 35.8324 16.6119 33.2345C18.0814 29.1854 20.3344 25.4656 23.2421 22.2876C27.7576 17.3603 33.6471 13.9004 40.1495 12.3551C39.6383 11.2987 39.0378 10.2878 38.3546 9.33342L38.3613 9.33476Z" fill="url(#paint1_linear_16_15)"/>
<path d="M31.0468 2.89674C26.3802 0.438421 20.9573 -0.166383 15.8638 1.20346C10.7703 2.5733 6.38219 5.81666 3.57822 10.2841C0.774239 14.7515 -0.238662 20.1133 0.742308 25.2958C1.72328 30.4782 4.6257 35.0989 8.86845 38.2325C9.18961 34.48 10.02 30.7887 11.3369 27.2602C13.2789 22.072 16.2235 17.317 20.0024 13.2662C23.4986 9.5254 27.6376 6.44235 32.2229 4.16369C32.3993 4.07549 32.5757 3.98728 32.7575 3.8964C33.0248 3.76944 33.2921 3.64247 33.5594 3.52085C35.1191 2.81194 36.7205 2.19827 38.3546 1.68324L38.3906 1.6672L31.0468 2.89674Z" fill="url(#paint2_linear_16_15)"/>
<g style="mix-blend-mode:screen">
<path d="M2.44586 12.3204C6.58226 12.8377 10.7728 11.9558 14.3499 9.81527C17.927 7.6747 20.6848 4.39859 22.1839 0.508867C18.0993 0.33185 14.0525 1.35643 10.5443 3.45581C7.03604 5.55519 4.22041 8.6372 2.44586 12.3204Z" fill="#231F20"/>
</g>
<g style="mix-blend-mode:screen">
<path d="M1.18658 27.1859C4.88967 24.8988 7.67908 21.3917 9.07424 17.2689C10.4694 13.1461 10.3829 8.66581 8.82973 4.59993C8.0049 5.21088 7.2255 5.88086 6.49763 6.6046C3.85306 9.24695 1.96541 12.5501 1.03131 16.1699C0.0971999 19.7898 0.150812 23.5939 1.18658 27.1859Z" fill="#231F20"/>
</g>
<g style="mix-blend-mode:screen">
<path d="M16.6119 33.2358C16.9948 32.1783 17.4329 31.1416 17.9243 30.1299C16.5982 30.2464 15.2912 30.5247 14.0326 30.9585C12.8958 33.8637 12.115 36.8959 11.7072 39.9889C12.7097 40.5078 13.7529 40.944 14.8264 41.2933C15.0727 38.5418 15.6728 35.8337 16.6119 33.2358Z" fill="#231F20"/>
</g>
<g style="mix-blend-mode:screen">
<path d="M8.86817 38.2346C9.01285 36.5772 9.25652 34.93 9.59786 33.3018C8.46203 34.1499 7.44054 35.1413 6.55878 36.2513C7.27929 36.9677 8.05114 37.6306 8.86817 38.2346Z" fill="#231F20"/>
</g>
<g style="mix-blend-mode:screen">
<path d="M33.5926 38.3066C32.4506 36.3108 30.9017 34.5774 29.0464 33.219C27.1912 31.8606 25.071 30.9075 22.8235 30.4215C21.7979 31.8335 20.9032 33.3361 20.1506 34.9107C19.0822 37.1739 18.3113 39.566 17.8572 42.0273C20.5957 42.483 23.3976 42.3887 26.0992 41.7499C28.8009 41.1111 31.3482 39.9405 33.5926 38.3066Z" fill="#231F20"/>
</g>
<g style="mix-blend-mode:screen">
<path d="M41.777 25.5425C37.5677 25.7019 33.5817 27.477 30.6473 30.499C27.7129 33.521 26.0557 37.5575 26.0203 41.7697C29.9296 40.8677 33.4956 38.8569 36.2905 35.9786C39.0854 33.1003 40.9904 29.4766 41.777 25.5425Z" fill="#231F20"/>
</g>
<g style="mix-blend-mode:color">
<rect x="-0.833069" y="-0.831253" width="49.1301" height="45.7993" fill="#D9D9D9"/>
</g>
</g>
<path d="M60.3428 21.807L64.5097 15.4967H62.3963L59.4285 20.1433L56.4907 15.4967H54.3173L58.4842 21.852V25.9889H60.3428V21.807ZM72.266 22.0319C72.266 21.4623 72.161 20.9277 71.9512 20.4281C71.7414 19.9284 71.4466 19.4938 71.0669 19.124C70.6971 18.7443 70.2525 18.4495 69.7328 18.2397C69.2232 18.0199 68.6636 17.9099 68.0541 17.9099C67.4445 17.9099 66.88 18.0199 66.3604 18.2397C65.8507 18.4595 65.4061 18.7593 65.0263 19.139C64.6566 19.5087 64.3618 19.9484 64.142 20.458C63.9322 20.9577 63.8272 21.4923 63.8272 22.0618C63.8272 22.6314 63.9322 23.166 64.142 23.6657C64.3518 24.1553 64.6416 24.59 65.0114 24.9697C65.3911 25.3394 65.8357 25.6342 66.3454 25.854C66.865 26.0639 67.4246 26.1688 68.0241 26.1688C68.6337 26.1688 69.1982 26.0589 69.7179 25.839C70.2375 25.6192 70.6821 25.3244 71.0519 24.9547C71.4316 24.575 71.7264 24.1353 71.9362 23.6357C72.156 23.136 72.266 22.6014 72.266 22.0319ZM70.4523 22.0618C70.4523 22.4116 70.3974 22.7413 70.2874 23.0511C70.1775 23.3509 70.0176 23.6157 69.8078 23.8455C69.5979 24.0753 69.3431 24.2602 69.0434 24.4001C68.7536 24.53 68.4238 24.595 68.0541 24.595C67.7044 24.595 67.3796 24.53 67.0798 24.4001C66.79 24.2602 66.5352 24.0753 66.3154 23.8455C66.1055 23.6157 65.9407 23.3459 65.8208 23.0361C65.7008 22.7164 65.6409 22.3816 65.6409 22.0319C65.6409 21.6821 65.6958 21.3574 65.8058 21.0576C65.9157 20.7478 66.0756 20.478 66.2854 20.2482C66.4953 20.0184 66.7451 19.8385 67.0349 19.7086C67.3346 19.5687 67.6644 19.4988 68.0241 19.4988C68.3838 19.4988 68.7086 19.5687 68.9984 19.7086C69.2982 19.8385 69.553 20.0234 69.7628 20.2632C69.9827 20.493 70.1525 20.7628 70.2724 21.0726C70.3924 21.3823 70.4523 21.7121 70.4523 22.0618ZM79.3141 22.5415C79.3141 23.161 79.1492 23.6457 78.8195 23.9954C78.4897 24.3352 78.06 24.505 77.5304 24.505C76.9908 24.505 76.5712 24.3401 76.2714 24.0104C75.9816 23.6706 75.8367 23.191 75.8367 22.5715V18.0748H74.0231V23.1111C74.0231 24.0404 74.2679 24.7798 74.7575 25.3294C75.2471 25.879 75.9416 26.1538 76.841 26.1538C77.4505 26.1538 77.9501 26.0189 78.3398 25.7491C78.7295 25.4693 79.0543 25.1396 79.3141 24.7598V25.9889H81.1278V18.0748H79.3141V22.5415ZM85.2215 22.9762C85.2215 22.4566 85.2864 22.0019 85.4163 21.6122C85.5462 21.2125 85.7311 20.8827 85.9709 20.6229C86.2107 20.3631 86.4955 20.1683 86.8253 20.0383C87.155 19.9084 87.5198 19.8435 87.9195 19.8435H88.0244V17.9249C87.3249 17.8949 86.7453 18.0598 86.2857 18.4196C85.826 18.7793 85.4713 19.2589 85.2215 19.8585V18.0748H83.4078V25.9889H85.2215V22.9762ZM102.112 15.4967H94.3031V25.9889H96.1467V21.7171H101.438V20.0383H96.1467V17.1755H102.112V15.4967ZM105.908 16.8607V15.137H103.96V16.8607H105.908ZM105.848 25.9889V18.0748H104.035V25.9889H105.848ZM110.032 21.5222C110.032 20.9027 110.197 20.4231 110.527 20.0833C110.857 19.7336 111.286 19.5587 111.816 19.5587C112.355 19.5587 112.77 19.7286 113.06 20.0683C113.36 20.3981 113.51 20.8727 113.51 21.4923V25.9889H115.323V20.9527C115.323 20.0234 115.078 19.2839 114.589 18.7343C114.099 18.1847 113.405 17.9099 112.505 17.9099C112.196 17.9099 111.916 17.9499 111.666 18.0298C111.426 18.0998 111.201 18.1997 110.991 18.3296C110.792 18.4595 110.612 18.6094 110.452 18.7793C110.302 18.9392 110.162 19.114 110.032 19.3039V18.0748H108.218V25.9889H110.032V21.5222ZM124.153 25.9889V21.2974C124.153 20.2382 123.869 19.4188 123.299 18.8392C122.729 18.2497 121.855 17.9549 120.676 17.9549C120.026 17.9549 119.472 18.0149 119.012 18.1348C118.553 18.2547 118.103 18.4146 117.663 18.6144L118.158 20.0683C118.518 19.9184 118.872 19.7985 119.222 19.7086C119.572 19.6187 119.971 19.5737 120.421 19.5737C121.051 19.5737 121.53 19.7186 121.86 20.0084C122.2 20.2982 122.37 20.7178 122.37 21.2674V21.4623C122.06 21.3624 121.735 21.2824 121.395 21.2225C121.066 21.1625 120.661 21.1325 120.181 21.1325C119.722 21.1325 119.292 21.1875 118.892 21.2974C118.503 21.3973 118.163 21.5522 117.873 21.7621C117.593 21.9719 117.373 22.2367 117.214 22.5565C117.054 22.8762 116.974 23.251 116.974 23.6806V23.7106C116.974 24.1103 117.049 24.4651 117.199 24.7748C117.358 25.0746 117.563 25.3294 117.813 25.5393C118.073 25.7391 118.373 25.889 118.712 25.9889C119.052 26.0988 119.412 26.1538 119.792 26.1538C120.391 26.1538 120.901 26.0439 121.32 25.824C121.74 25.6042 122.085 25.3344 122.355 25.0146V25.9889H124.153ZM122.4 23.1261C122.4 23.3759 122.345 23.6057 122.235 23.8155C122.135 24.0154 121.99 24.1903 121.8 24.3401C121.61 24.48 121.385 24.59 121.126 24.6699C120.876 24.7498 120.601 24.7898 120.301 24.7898C119.872 24.7898 119.507 24.6899 119.207 24.49C118.917 24.2902 118.772 24.0004 118.772 23.6207V23.5907C118.772 23.181 118.932 22.8662 119.252 22.6464C119.572 22.4266 120.016 22.3167 120.586 22.3167C120.936 22.3167 121.266 22.3466 121.575 22.4066C121.895 22.4665 122.17 22.5415 122.4 22.6314V23.1261ZM128.124 21.5222C128.124 20.9027 128.289 20.4231 128.619 20.0833C128.949 19.7336 129.378 19.5587 129.908 19.5587C130.447 19.5587 130.862 19.7286 131.152 20.0683C131.452 20.3981 131.602 20.8727 131.602 21.4923V25.9889H133.415V20.9527C133.415 20.0234 133.17 19.2839 132.681 18.7343C132.191 18.1847 131.497 17.9099 130.597 17.9099C130.288 17.9099 130.008 17.9499 129.758 18.0298C129.518 18.0998 129.293 18.1997 129.083 18.3296C128.884 18.4595 128.704 18.6094 128.544 18.7793C128.394 18.9392 128.254 19.114 128.124 19.3039V18.0748H126.31V25.9889H128.124V21.5222ZM142.5 24.6849L141.406 23.6057C141.116 23.8955 140.806 24.1353 140.477 24.3252C140.157 24.505 139.782 24.595 139.353 24.595C139.003 24.595 138.683 24.53 138.393 24.4001C138.103 24.2602 137.854 24.0753 137.644 23.8455C137.434 23.6157 137.269 23.3459 137.149 23.0361C137.039 22.7263 136.984 22.3916 136.984 22.0319C136.984 21.6821 137.039 21.3574 137.149 21.0576C137.269 20.7478 137.429 20.478 137.629 20.2482C137.829 20.0184 138.068 19.8385 138.348 19.7086C138.628 19.5687 138.933 19.4988 139.263 19.4988C139.722 19.4988 140.107 19.5937 140.417 19.7835C140.736 19.9634 141.036 20.1982 141.316 20.488L142.44 19.2739C142.071 18.8642 141.636 18.5345 141.136 18.2847C140.647 18.0348 140.027 17.9099 139.278 17.9099C138.688 17.9099 138.138 18.0199 137.629 18.2397C137.129 18.4595 136.695 18.7593 136.325 19.139C135.965 19.5187 135.68 19.9584 135.47 20.458C135.271 20.9577 135.171 21.4923 135.171 22.0618C135.171 22.6314 135.271 23.166 135.47 23.6657C135.68 24.1553 135.965 24.59 136.325 24.9697C136.695 25.3394 137.129 25.6342 137.629 25.854C138.128 26.0639 138.673 26.1688 139.263 26.1688C140.032 26.1688 140.667 26.0339 141.166 25.7641C141.666 25.4843 142.11 25.1246 142.5 24.6849ZM146.147 16.8607V15.137H144.198V16.8607H146.147ZM146.087 25.9889V18.0748H144.273V25.9889H146.087ZM155.097 25.9889V21.2974C155.097 20.2382 154.812 19.4188 154.243 18.8392C153.673 18.2497 152.799 17.9549 151.62 17.9549C150.97 17.9549 150.416 18.0149 149.956 18.1348C149.496 18.2547 149.047 18.4146 148.607 18.6144L149.102 20.0683C149.461 19.9184 149.816 19.7985 150.166 19.7086C150.516 19.6187 150.915 19.5737 151.365 19.5737C151.994 19.5737 152.474 19.7186 152.804 20.0084C153.144 20.2982 153.313 20.7178 153.313 21.2674V21.4623C153.004 21.3624 152.679 21.2824 152.339 21.2225C152.009 21.1625 151.605 21.1325 151.125 21.1325C150.665 21.1325 150.236 21.1875 149.836 21.2974C149.446 21.3973 149.107 21.5522 148.817 21.7621C148.537 21.9719 148.317 22.2367 148.157 22.5565C147.997 22.8762 147.917 23.251 147.917 23.6806V23.7106C147.917 24.1103 147.992 24.4651 148.142 24.7748C148.302 25.0746 148.507 25.3294 148.757 25.5393C149.017 25.7391 149.316 25.889 149.656 25.9889C149.996 26.0988 150.356 26.1538 150.735 26.1538C151.335 26.1538 151.845 26.0439 152.264 25.824C152.684 25.6042 153.029 25.3344 153.298 25.0146V25.9889H155.097ZM153.343 23.1261C153.343 23.3759 153.288 23.6057 153.179 23.8155C153.079 24.0154 152.934 24.1903 152.744 24.3401C152.554 24.48 152.329 24.59 152.069 24.6699C151.82 24.7498 151.545 24.7898 151.245 24.7898C150.815 24.7898 150.451 24.6899 150.151 24.49C149.861 24.2902 149.716 24.0004 149.716 23.6207V23.5907C149.716 23.181 149.876 22.8662 150.196 22.6464C150.516 22.4266 150.96 22.3167 151.53 22.3167C151.88 22.3167 152.209 22.3466 152.519 22.4066C152.839 22.4665 153.114 22.5415 153.343 22.6314V23.1261ZM159.173 25.9889V15.0471H157.359V25.9889H159.173Z" fill="#3E3F42"/>
<defs>
<linearGradient id="paint0_linear_16_15" x1="20.777" y1="16.0403" x2="33.0617" y2="22.0169" gradientUnits="userSpaceOnUse">
<stop stop-color="white"/>
<stop offset="1" stop-color="#D1D3D4"/>
</linearGradient>
<linearGradient id="paint1_linear_16_15" x1="36.6146" y1="36.0491" x2="24.3299" y2="21.4403" gradientUnits="userSpaceOnUse">
<stop stop-color="#22BEE7"/>
<stop offset="1" stop-color="#1B6DB5"/>
</linearGradient>
<linearGradient id="paint2_linear_16_15" x1="8.95132" y1="7.52085" x2="19.2447" y2="16.2639" gradientUnits="userSpaceOnUse">
<stop stop-color="#FBAE17"/>
<stop offset="1" stop-color="#F16322"/>
</linearGradient>
<clipPath id="clip0_16_15">
<rect width="46.0475" height="42.6505" fill="white"/>
</clipPath>
</defs>
</svg>
