<svg width="99" height="16" viewBox="0 0 99 16" fill="none" xmlns="http://www.w3.org/2000/svg">
<path d="M94.6088 14.9498C93.8199 14.9498 93.1291 14.7417 92.5364 14.3253C91.9437 13.909 91.4804 13.3282 91.1465 12.5829C90.8167 11.8377 90.6519 10.9696 90.6519 9.97874C90.6519 8.99202 90.8167 8.12811 91.1465 7.38702C91.4804 6.64178 91.9458 6.06306 92.5427 5.65089C93.1395 5.23455 93.8345 5.02638 94.6275 5.02638C95.2119 5.02638 95.6981 5.13046 96.0863 5.33863C96.4745 5.54264 96.7855 5.7966 97.0192 6.10053C97.2529 6.40446 97.4345 6.70006 97.5639 6.98734H97.6641V1.96003H98.7848V14.75H97.6954V12.9701H97.5639C97.4345 13.2616 97.2509 13.5613 97.0129 13.8694C96.775 14.1734 96.4599 14.4294 96.0675 14.6376C95.6794 14.8458 95.1931 14.9498 94.6088 14.9498ZM94.7402 13.9319C95.3621 13.9319 95.8922 13.7633 96.3305 13.426C96.7688 13.0846 97.1027 12.6163 97.3323 12.0209C97.566 11.4214 97.6829 10.7344 97.6829 9.96001C97.6829 9.19394 97.5681 8.51739 97.3385 7.93035C97.1089 7.33915 96.775 6.87701 96.3368 6.54393C95.8985 6.2067 95.3663 6.03808 94.7402 6.03808C94.0974 6.03808 93.5548 6.21294 93.1124 6.56267C92.6741 6.90823 92.3402 7.37662 92.1106 7.96782C91.8853 8.55902 91.7726 9.22308 91.7726 9.96001C91.7726 10.7053 91.8873 11.3776 92.1169 11.9772C92.3465 12.5767 92.6804 13.0534 93.1187 13.4073C93.5611 13.757 94.1016 13.9319 94.7402 13.9319Z" fill="black"/>
<path d="M82.9326 8.7547V14.75H81.8181V5.15752H82.9013V6.66259H83.0014C83.2268 6.17131 83.5774 5.77787 84.0533 5.48227C84.5333 5.18251 85.126 5.03262 85.8314 5.03262C86.4783 5.03262 87.046 5.16793 87.5343 5.43855C88.0269 5.70501 88.4088 6.09845 88.6801 6.61888C88.9556 7.1393 89.0933 7.77839 89.0933 8.53612V14.75H87.9789V8.60482C87.9789 7.81794 87.7576 7.19551 87.3152 6.73754C86.8769 6.27956 86.2884 6.05057 85.5496 6.05057C85.0446 6.05057 84.5959 6.15882 84.2035 6.37532C83.8112 6.59182 83.5002 6.90407 83.2707 7.31209C83.0453 7.71594 82.9326 8.19681 82.9326 8.7547Z" fill="black"/>
<path d="M78.6316 14.75V5.15752H79.7523V14.75H78.6316ZM79.2014 3.50881C78.9718 3.50881 78.7756 3.43179 78.6128 3.27774C78.45 3.11953 78.3687 2.9301 78.3687 2.70944C78.3687 2.48878 78.45 2.30143 78.6128 2.14738C78.7756 1.98917 78.9718 1.91006 79.2014 1.91006C79.4309 1.91006 79.6271 1.98917 79.7899 2.14738C79.9527 2.30143 80.0341 2.48878 80.0341 2.70944C80.0341 2.9301 79.9527 3.11953 79.7899 3.27774C79.6271 3.43179 79.4309 3.50881 79.2014 3.50881Z" fill="black"/>
<path d="M65.5702 14.75L62.0579 1.96003H63.2474L66.1525 12.9577H66.2527L69.1577 1.96003H70.5101L73.4152 12.9577H73.5153L76.4204 1.96003H77.6162L74.1039 14.75H72.8517L69.8777 3.90226H69.7963L66.8224 14.75H65.5702Z" fill="black"/>
<path d="M55.0444 9.05447V14.75H53.1724V1.96003H55.0193V6.7188H55.1383C55.3637 6.20254 55.708 5.79244 56.1713 5.48851C56.6346 5.18458 57.2399 5.03262 57.987 5.03262C58.6465 5.03262 59.2225 5.16793 59.715 5.43855C60.2117 5.70917 60.5957 6.11302 60.867 6.6501C61.1425 7.18302 61.2802 7.84916 61.2802 8.64853V14.75H59.4082V8.87336C59.4082 8.16974 59.2267 7.62434 58.8635 7.23714C58.5004 6.84578 57.9954 6.6501 57.3484 6.6501C56.906 6.6501 56.5094 6.74378 56.1588 6.93113C55.8124 7.11848 55.539 7.39327 55.3386 7.75549C55.1425 8.11354 55.0444 8.54653 55.0444 9.05447Z" fill="black"/>
<path d="M51.7763 5.15752V6.65634H46.5234V5.15752H51.7763ZM47.9321 2.85932H49.8042V11.9335C49.8042 12.2957 49.8584 12.5684 49.9669 12.7516C50.0755 12.9306 50.2153 13.0534 50.3864 13.12C50.5617 13.1825 50.7516 13.2137 50.9562 13.2137C51.1064 13.2137 51.2379 13.2033 51.3506 13.1825C51.4633 13.1617 51.551 13.145 51.6136 13.1325L51.9516 14.6751C51.8431 14.7167 51.6887 14.7583 51.4883 14.8C51.288 14.8458 51.0376 14.8707 50.737 14.8749C50.2445 14.8832 49.7854 14.7958 49.3596 14.6126C48.9339 14.4294 48.5895 14.1463 48.3266 13.7633C48.0636 13.3802 47.9321 12.8994 47.9321 12.3207V2.85932Z" fill="black"/>
<path d="M40.8342 14.75V5.15752H42.6436V6.68133H42.7438C42.9191 6.16507 43.228 5.75913 43.6704 5.46353C44.117 5.16377 44.6221 5.01389 45.1856 5.01389C45.3024 5.01389 45.4402 5.01805 45.5988 5.02638C45.7616 5.0347 45.8889 5.04511 45.9807 5.0576V6.8437C45.9056 6.82288 45.772 6.79999 45.58 6.775C45.388 6.74586 45.196 6.73129 45.004 6.73129C44.5616 6.73129 44.1671 6.82497 43.8207 7.01232C43.4784 7.19551 43.2071 7.45156 43.0068 7.78047C42.8064 8.10521 42.7062 8.47575 42.7062 8.89209V14.75H40.8342Z" fill="black"/>
<path d="M35.1435 14.9436C34.2419 14.9436 33.4551 14.7375 32.7831 14.3253C32.1111 13.9132 31.5893 13.3365 31.2179 12.5954C30.8464 11.8544 30.6606 10.9884 30.6606 9.99748C30.6606 9.00243 30.8464 8.13228 31.2179 7.38703C31.5893 6.64178 32.1111 6.06306 32.7831 5.65089C33.4551 5.23871 34.2419 5.03262 35.1435 5.03262C36.045 5.03262 36.8318 5.23871 37.5038 5.65089C38.1758 6.06306 38.6976 6.64178 39.0691 7.38703C39.4405 8.13228 39.6263 9.00243 39.6263 9.99748C39.6263 10.9884 39.4405 11.8544 39.0691 12.5954C38.6976 13.3365 38.1758 13.9132 37.5038 14.3253C36.8318 14.7375 36.045 14.9436 35.1435 14.9436ZM35.1497 13.3761C35.7341 13.3761 36.2182 13.222 36.6023 12.9139C36.9863 12.6059 37.2701 12.1958 37.4537 11.6837C37.6416 11.1716 37.7355 10.6074 37.7355 9.99123C37.7355 9.37921 37.6416 8.81715 37.4537 8.30506C37.2701 7.78879 36.9863 7.37454 36.6023 7.06228C36.2182 6.75003 35.7341 6.5939 35.1497 6.5939C34.5612 6.5939 34.0728 6.75003 33.6847 7.06228C33.3007 7.37454 33.0147 7.78879 32.8269 8.30506C32.6433 8.81715 32.5514 9.37921 32.5514 9.99123C32.5514 10.6074 32.6433 11.1716 32.8269 11.6837C33.0147 12.1958 33.3007 12.6059 33.6847 12.9139C34.0728 13.222 34.5612 13.3761 35.1497 13.3761Z" fill="black"/>
<path d="M29.3022 1.96003V14.75H27.5241L21.0065 5.36986H20.8875V14.75H18.9529V1.96003H20.7435L27.2674 11.3527H27.3863V1.96003H29.3022Z" fill="black"/>
<rect width="16.0405" height="16" fill="#1665D8"/>
<path d="M13.5995 4.05851C13.401 4.2431 13.2041 4.42135 13.0087 4.59318C11.215 6.15136 9.19621 7.49916 6.81824 8.1879C4.58814 8.90938 1.2746 8.5755 0.234234 6.15446C0.124397 5.90699 0.045164 5.65011 0 5.39127C0.111717 5.62918 0.249022 5.85059 0.405565 6.05387C1.89081 7.95091 4.4311 7.78861 6.53408 7.18375C8.71589 6.55445 10.7928 5.51875 12.8961 4.4296C13.1259 4.31015 13.3604 4.18655 13.5995 4.05851Z" fill="white"/>
<path d="M0 3.82609C0.0989209 4.02382 0.211076 4.21279 0.335809 4.38834C1.49207 6.04868 3.5255 6.05856 5.34724 5.76432C7.20245 5.45518 9.06354 4.85724 10.9586 4.26188C11.166 4.19651 11.3779 4.12869 11.5945 4.05851C11.4094 4.19078 11.2261 4.31811 11.045 4.44035C9.38657 5.5455 7.55207 6.45221 5.51417 6.79435C3.57844 7.18824 0.812322 6.60351 0.158604 4.47819C0.0845185 4.26383 0.0324034 4.04468 0 3.82609Z" fill="white"/>
</svg>
